<svg width="45" height="45" viewBox="0 0 45 45" fill="none" xmlns="http://www.w3.org/2000/svg">
<mask id="path-1-inside-1_0_465" fill="white">
<path d="M45 22.9019C45 35.1064 34.9264 45.0001 22.5 45.0001C10.0736 45.0001 0 35.1064 0 22.9019C0 10.6974 10.0736 0.803711 22.5 0.803711C34.9264 0.803711 45 10.6974 45 22.9019ZM0.575397 22.9019C0.575397 34.7943 10.3914 44.435 22.5 44.435C34.6086 44.435 44.4246 34.7943 44.4246 22.9019C44.4246 11.0095 34.6086 1.36883 22.5 1.36883C10.3914 1.36883 0.575397 11.0095 0.575397 22.9019Z"/>
</mask>
<path d="M45 22.9019C45 35.1064 34.9264 45.0001 22.5 45.0001C10.0736 45.0001 0 35.1064 0 22.9019C0 10.6974 10.0736 0.803711 22.5 0.803711C34.9264 0.803711 45 10.6974 45 22.9019ZM0.575397 22.9019C0.575397 34.7943 10.3914 44.435 22.5 44.435C34.6086 44.435 44.4246 34.7943 44.4246 22.9019C44.4246 11.0095 34.6086 1.36883 22.5 1.36883C10.3914 1.36883 0.575397 11.0095 0.575397 22.9019Z" fill="#D9D9D9" stroke="#E0E0E0" stroke-width="2" mask="url(#path-1-inside-1_0_465)"/>
<path d="M39.9091 5.625C39.9091 8.16241 37.8097 10.25 35.1819 10.25C32.554 10.25 30.4546 8.16241 30.4546 5.625C30.4546 3.08759 32.554 1 35.1819 1C37.8097 1 39.9091 3.08759 39.9091 5.625Z" fill="#D81F1F" stroke="#FDFDFD" stroke-width="2"/>
<path opacity="0.4" d="M28.7557 24.9847L27.9034 23.5951C27.7244 23.2854 27.5625 22.6995 27.5625 22.3563V20.2386C27.5625 17.5098 25.304 15.2832 22.517 15.2832C19.7301 15.2832 17.4716 17.5098 17.4716 20.2386V22.3563C17.4716 22.6995 17.3097 23.2854 17.1307 23.5868L16.2699 24.9847C15.929 25.5455 15.8523 26.1649 16.0653 26.7341C16.2699 27.2949 16.7557 27.7302 17.3864 27.9395C19.0398 28.4919 20.7784 28.7598 22.517 28.7598C24.2557 28.7598 25.9943 28.4919 27.6477 27.9478C28.2443 27.7553 28.7045 27.3117 28.9261 26.7341C29.1477 26.1565 29.0881 25.5204 28.7557 24.9847Z" fill="#3E3E3E"/>
<path d="M24.4176 15.6362C23.8295 15.4102 23.1903 15.2846 22.517 15.2846C21.8522 15.2846 21.213 15.4018 20.625 15.6362C20.9914 14.9581 21.7159 14.5312 22.517 14.5312C23.3267 14.5312 24.0426 14.9581 24.4176 15.6362ZM24.9119 29.6066C24.7327 30.0939 24.405 30.5152 23.9735 30.8132C23.542 31.1112 23.0275 31.2715 22.5 31.2723C21.8267 31.2723 21.1619 31.0045 20.6931 30.5273C20.4204 30.2762 20.2159 29.9414 20.0966 29.5982C20.2074 29.615 20.3181 29.6233 20.4375 29.6401C20.6335 29.6652 20.838 29.6903 21.0426 29.707C21.5284 29.7489 22.0227 29.774 22.517 29.774C23.0028 29.774 23.4886 29.7489 23.9659 29.707C24.1449 29.6903 24.3238 29.6819 24.4943 29.6568L24.9119 29.6066Z" fill="#3E3E3E"/>
</svg>
