<svg width="24" height="24" viewBox="0 0 24 24" fill="none" xmlns="http://www.w3.org/2000/svg">
<path opacity="0.4" d="M11.01 20.02C13.3996 20.02 15.6913 19.0707 17.381 17.381C19.0707 15.6913 20.02 13.3996 20.02 11.01C20.02 8.6204 19.0707 6.32867 17.381 4.63897C15.6913 2.94927 13.3996 2 11.01 2C8.6204 2 6.32867 2.94927 4.63897 4.63897C2.94927 6.32867 2 8.6204 2 11.01C2 13.3996 2.94927 15.6913 4.63897 17.381C6.32867 19.0707 8.6204 20.02 11.01 20.02Z" fill="#5C5C5C"/>
<path d="M21.9901 18.95C21.6601 18.34 20.9601 18 20.0201 18C19.3101 18 18.7001 18.29 18.3401 18.79C17.9801 19.29 17.9001 19.96 18.1201 20.63C18.5501 21.93 19.3 22.22 19.71 22.27C19.77 22.28 19.8301 22.28 19.9001 22.28C20.3401 22.28 21.0201 22.09 21.6801 21.1C22.2101 20.33 22.3101 19.56 21.9901 18.95Z" fill="#5C5C5C"/>
</svg>
